#!OML:ASF F:\VICON\USERDATA\INSTALL\rory3\rory3.ASF
:FULLY-SPECIFIED
:DEGREES
959
root 3.17363 16.479 0.582444 10.5322 6.13862 6.14075
lowerback -5.48251 1.66876 -0.434612
upperback 1.1702 2.35926 -2.3446
thorax 4.36813 1.19273 -1.96442
lowerneck 0.797792 9.01689 3.37785
upperneck 57.3387 13.8234 4.77788
head 25.886 6.57929 4.84433
rclavicle -5.96354e-016 -2.3059e-014
rhumerus -42.8529 4.38296 -88.0521
rradius 59.1313
rwrist -48.2626
rhand -7.70891 -45.7605
rfingers 7.12502
rthumb 18.1889 -74.9301
lclavicle -5.96354e-016 -2.3059e-014
lhumerus -20.7587 -3.38355 86.7007
lradius 36.1043
lwrist 69.6512
lhand -39.8294 -13.0679
lfingers 7.12502
lthumb -12.8033 16.5195
rfemur -51.9952 16.0322 4.36469
rtibia 76.2124
rfoot 6.63267 15.4652
rtoes -33.3796
lfemur -29.541 -7.74676 -32.0362
ltibia 46.4772
lfoot -23.0614 13.4701
ltoes 8.39695
960
root 3.16672 16.4802 0.582517 10.6041 6.07766 6.13703
lowerback -5.60535 1.8986 -0.351621
upperback 1.05891 2.66649 -2.49188
thorax 4.34341 1.34916 -2.13257
lowerneck 1.01641 8.81864 3.70008
upperneck 57.3445 13.3784 4.92415
head 25.8409 6.51212 4.78091
rclavicle 1.57537e-014 -4.37326e-015
rhumerus -43.1292 3.80065 -88.0448
rradius 59.0926
rwrist -48.2686
rhand -6.94509 -47.1422
rfingers 7.12502
rthumb 18.9236 -76.2417
lclavicle 1.57537e-014 -4.37326e-015
lhumerus -20.8953 -4.1972 86.7828
lradius 36.3047
lwrist 70.1836
lhand -41.1924 -12.7093
lfingers 7.12502
lthumb -14.1171 16.7912
rfemur -52.102 16.0691 4.36362
rtibia 76.2309
rfoot 6.51727 15.4698
rtoes -33.4309
lfemur -29.6609 -7.68925 -32.007
ltibia 46.5479
lfoot -23.0503 13.497
ltoes 9.5755
961
root 3.15748 16.4803 0.584435 10.5792 6.02081 6.06775
lowerback -6.57999 2.36888 -3.57935
upperback -0.174095 3.48664 -1.59515
thorax 3.39374 1.68874 0.68164
lowerneck 4.28526 6.98135 7.24174
upperneck 57.6076 10.7518 3.19175
head 25.8918 6.31436 2.51186
rclavicle -1.44616e-014 3.69739e-014
rhumerus -46.7286 2.51031 -87.0848
rradius 59.5963
rwrist -48.3183
rhand -7.28479 -45.9543
rfingers 7.12502
rthumb 18.5969 -75.0853
lclavicle -1.44616e-014 3.69739e-014
lhumerus -24.0595 -5.80599 88.2269
lradius 36.601
lwrist 70.3847
lhand -41.8687 -12.1905
lfingers 7.12502
lthumb -14.7687 17.2633
rfemur -52.0842 16.1685 4.48499
rtibia 76.2427
rfoot 6.79316 15.0052
rtoes -32.0884
lfemur -29.6952 -7.63588 -31.9054
ltibia 46.6081
lfoot -23.1227 13.5093
ltoes 8.31827
962
root 3.15113 16.4765 0.582169 10.5946 5.99913 6.02376
lowerback -5.57236 1.9919 -0.370887
upperback 1.01639 2.78986 -2.47287
thorax 4.28321 1.40943 -2.09212
lowerneck 0.818966 8.77799 3.19601
upperneck 57.4753 12.9781 5.79307
head 25.7835 6.32561 5.33164
rclavicle -2.66371e-014 1.27222e-014
rhumerus -43.2245 3.61185 -88.0455
rradius 59.0543
rwrist -48.2204
rhand -6.80011 -46.6905
rfingers 7.12502
rthumb 19.0631 -75.7763
lclavicle -2.66371e-014 1.27222e-014
lhumerus -20.9069 -4.50891 86.8348
lradius 36.2322
lwrist 70.3778
lhand -41.5765 -12.044
lfingers 7.12502
lthumb -14.4871 17.4302
rfemur -52.1432 16.2085 4.54311
rtibia 76.2457
rfoot 7.19385 14.6165
rtoes -30.9901
lfemur -29.7352 -7.7533 -31.8291
ltibia 46.6142
lfoot -23.1089 13.7267
ltoes 9.41011
963
root 3.14691 16.4738 0.579721 10.5929 6.05579 5.9756
lowerback -5.48135 2.11304 -0.181888
upperback 0.9221 2.93885 -2.5718
thorax 4.15436 1.48911 -2.29144
lowerneck 0.95124 8.65205 3.31588
upperneck 57.4955 12.6698 5.97571
head 25.7481 6.26221 5.35674
rclavicle 2.09718e-014 -5.76476e-015
rhumerus -43.5259 3.13451 -88.0244
rradius 59.2267
rwrist -48.1517
rhand -6.79041 -46.6639
rfingers 7.12502
rthumb 19.0724 -75.7488
lclavicle 2.09718e-014 -5.76476e-015
lhumerus -20.9573 -4.92434 86.847
lradius 36.0205
lwrist 70.2476
lhand -41.0341 -12.1438
lfingers 7.12502
lthumb -13.9645 17.3672
rfemur -52.1747 16.1894 4.61418
rtibia 76.2458
rfoot 6.78511 15.182
rtoes -33.0604
lfemur -29.7117 -7.96536 -31.7405
ltibia 46.5984
lfoot -23.0747 13.9212
ltoes 7.27763
964
root 3.14412 16.4809 0.580387 10.5119 6.15771 6.03418
lowerback -5.27091 2.13121 -0.123157
upperback 0.875339 2.95813 -2.65777
thorax 3.99561 1.50094 -2.42013
lowerneck 1.0362 8.60859 3.44819
upperneck 57.5157 12.5837 5.98133
head 25.769 6.26117 5.3215
rclavicle 2.5345e-015 1.51076e-014
rhumerus -43.7568 2.91345 -88.0579
rradius 59.3924
rwrist -48.1375
rhand -6.82757 -46.3508
rfingers 7.12502
rthumb 19.0367 -75.4392
lclavicle 2.5345e-015 1.51076e-014
lhumerus -21.1173 -5.18874 86.8
lradius 36.0209
lwrist 70.2312
lhand -40.9954 -12.0895
lfingers 7.12502
lthumb -13.9272 17.4241
rfemur -52.001 16.105 4.63709
rtibia 76.206
rfoot 6.19787 15.6478
rtoes -34.7664
lfemur -29.5943 -8.179 -31.7573
ltibia 46.5653
lfoot -23.1544 13.8426
ltoes 9.90598
965
root 3.14378 16.487 0.581877 10.4576 6.20509 6.13567
lowerback -5.12169 2.0103 -0.190028
upperback 0.895593 2.79837 -2.6438
thorax 3.92136 1.41977 -2.3872
lowerneck 0.981658 8.72534 3.20703
upperneck 57.4898 12.7742 6.04226
head 25.6763 6.2867 5.41807
rclavicle -5.04416e-014 -1.68967e-014
rhumerus -43.6718 3.22675 -88.1205
rradius 59.3482
rwrist -48.1488
rhand -6.91843 -46.6399
rfingers 7.12502
rthumb 18.9493 -75.7369
lclavicle -5.04416e-014 -1.68967e-014
lhumerus -21.2641 -5.08865 86.7526
lradius 36.1954
lwrist 70.3552
lhand -41.4003 -12.1288
lfingers 7.12502
lthumb -14.3174 17.3575
rfemur -51.8469 16.0015 4.59293
rtibia 76.1641
rfoot 7.35276 14.279
rtoes -29.6163
lfemur -29.5081 -8.30197 -31.8553
ltibia 46.5381
lfoot -23.1672 13.849
ltoes 9.02033
966
root 3.14243 16.486 0.583158 10.4412 6.12962 6.11192
lowerback -5.05656 1.8842 -0.261317
upperback 0.924453 2.62815 -2.49991
thorax 3.89681 1.33155 -2.21461
lowerneck 0.805983 8.88727 2.96958
upperneck 57.5838 13.1404 5.96231
head 25.83 6.34502 5.51213
rclavicle -1.64494e-014 -1.25234e-014
rhumerus -43.437 3.7916 -88.1081
rradius 59.1479
rwrist -48.2063
rhand -6.65625 -48.1776
rfingers 7.12502
rthumb 19.2014 -77.2498
lclavicle -1.64494e-014 -1.25234e-014
lhumerus -21.2679 -4.69083 86.8024
lradius 36.3224
lwrist 70.5646
lhand -41.65 -11.7993
lfingers 7.12502
lthumb -14.558 17.6699
rfemur -51.8534 16.0362 4.61311
rtibia 76.1535
rfoot 6.51419 15.3197
rtoes -33.3426
lfemur -29.498 -8.21716 -31.8562
ltibia 46.5387
lfoot -23.1121 13.9311
ltoes 9.97004
967
root 3.13923 16.4828 0.583268 10.41 5.99686 6.08705
lowerback -5.06423 1.78101 -0.399449
upperback 1.01003 2.49473 -2.33675
thorax 3.97099 1.26015 -1.97822
lowerneck 0.632738 9.03322 2.89353
upperneck 57.7071 13.5356 5.73947
head 26.1031 6.42737 5.51807
rclavicle 3.7123e-014 9.93923e-015
rhumerus -43.172 4.34827 -88.0738
rradius 58.9718
rwrist -48.2704
rhand -7.40374 -46.7848
rfingers 7.12502
rthumb 18.4825 -75.9268
lclavicle 3.7123e-014 9.93923e-015
lhumerus -21.0616 -4.10457 86.8528
lradius 36.2218
lwrist 70.5853
lhand -41.5091 -11.5658
lfingers 7.12502
lthumb -14.4222 17.9131
rfemur -51.8805 16.1298 4.61169
rtibia 76.1672
rfoot 7.0175 14.9255
rtoes -31.8394
lfemur -29.4871 -8.07421 -31.8529
ltibia 46.5324
lfoot -23.0961 13.9463
ltoes 8.56972
968
root 3.13554 16.4766 0.584801 10.3581 5.91996 6.12235
lowerback -6.18057 2.31895 -3.88492
upperback -0.280463 3.41155 -1.42515
thorax 3.03418 1.6536 0.997726
lowerneck 4.42794 7.02115 7.00672
upperneck 57.8756 10.7421 3.49424
head 26.0867 6.28309 2.75907
rclavicle -3.57812e-015 -8.74653e-015
rhumerus -47.0639 2.87927 -87.0364
rradius 59.5914
rwrist -48.3599
rhand -7.59787 -46.5104
rfingers 7.12502
rthumb 18.2957 -75.67
lclavicle -3.57812e-015 -8.74653e-015
lhumerus -24.3656 -5.80745 88.415
lradius 36.3366
lwrist 70.5138
lhand -41.5506 -11.6777
lfingers 7.12502
lthumb -14.4622 17.7983
rfemur -51.8507 16.1515 4.57643
rtibia 76.1987
rfoot 7.45389 14.517
rtoes -29.6751
lfemur -29.3889 -7.96489 -31.9295
ltibia 46.4955
lfoot -23.0147 14.124
ltoes 9.18739
969
root 3.13208 16.4739 0.590357 10.2643 5.91827 6.13057
lowerback -5.13074 1.90143 -0.438636
upperback 1.01044 2.66241 -2.41063
thorax 4.01657 1.34363 -2.01606
lowerneck 0.896977 8.93685 2.9748
upperneck 57.699 13.2715 5.90843
head 25.9528 6.3829 5.51951
rclavicle 3.67752e-015 -8.34896e-015
rhumerus -43.4724 4.07465 -88.1069
rradius 59.145
rwrist -48.3826
rhand -8.27318 -46.0029
rfingers 7.12502
rthumb 17.646 -75.2222
lclavicle 3.67752e-015 -8.34896e-015
lhumerus -21.1714 -4.55031 86.9115
lradius 36.1887
lwrist 70.7332
lhand -41.4186 -11.9265
lfingers 7.12502
lthumb -14.335 17.5586
rfemur -51.7162 16.1737 4.63432
rtibia 76.2228
rfoot 6.69476 15.2036
rtoes -32.1609
lfemur -29.1487 -7.87342 -31.9871
ltibia 46.4237
lfoot -22.9111 14.4018
ltoes 7.4487
970
root 3.12873 16.4751 0.595722 10.1976 5.90874 6.15491
lowerback -5.09432 1.98808 -0.421451
upperback 0.991777 2.77943 -2.4965
thorax 3.98601 1.40339 -2.1059
lowerneck 0.91056 8.85096 3.15168
upperneck 57.7153 13.095 5.93865
head 26.0146 6.35606 5.48791
rclavicle 3.10601e-014 -2.24627e-014
rhumerus -43.7595 3.75371 -88.1662
rradius 59.3146
rwrist -48.3768
rhand -9.00277 -44.8839
rfingers 7.12502
rthumb 16.9438 -74.1648
lclavicle 3.10601e-014 -2.24627e-014
lhumerus -21.2536 -4.87515 86.9123
lradius 36.2342
lwrist 70.8651
lhand -40.6658 -12.2008
lfingers 7.12502
lthumb -13.6095 17.3344
rfemur -51.5915 16.2146 4.67277
rtibia 76.2384
rfoot 5.74685 15.8189
rtoes -35.1087
lfemur -28.961 -7.82053 -32.0279
ltibia 46.3431
lfoot -22.8826 14.5203
ltoes 6.5873
971
root 3.12479 16.4718 0.597813 10.2444 5.88854 6.23446
lowerback -5.07881 1.73857 -0.649556
upperback 1.00255 2.45477 -2.3491
thorax 3.9601 1.23449 -1.85391
lowerneck 0.790557 9.08176 2.76242
upperneck 57.7879 13.5635 5.89885
head 26.0605 6.42653 5.62575
rclavicle 2.15681e-014 -9.93923e-015
rhumerus -43.7331 4.53464 -88.2687
rradius 59.3413
rwrist -48.4214
rhand -9.38539 -43.9772
rfingers 7.12502
rthumb 16.5754 -73.2893
lclavicle 2.15681e-014 -9.93923e-015
lhumerus -21.2527 -3.90024 86.8175
lradius 36.23
lwrist 70.6935
lhand -40.0352 -11.9519
lfingers 7.12502
lthumb -13.0018 17.623
rfemur -51.6337 16.1692 4.5865
rtibia 76.2572
rfoot 6.47279 15.0953
rtoes -32.6004
lfemur -29.0093 -7.78958 -32.1015
ltibia 46.3053
lfoot -22.7994 14.547
ltoes 6.27508
